
<svg version="1.1" xmlns="http://www.w3.org/2000/svg" xmlns:xlink="http://www.w3.org/1999/xlink" x="0px" y="0px" viewBox="0 0 256 256" enable-background="new 0 0 256 256" xml:space="preserve">
<g><g><path fill="#000000" d="M63.8,75.8H84v12.6H63.8V75.8z"/><path fill="#000000" d="M94.1,75.8h96.2v12.6H94.1V75.8z"/><path fill="#000000" d="M63.8,128.3H84V141H63.8V128.3z"/><path fill="#000000" d="M94.1,128.3h96.2V141H94.1V128.3z"/><path fill="#000000" d="M63.8,180.8H84v12.6H63.8V180.8z"/><path fill="#000000" d="M94.1,180.8h96.2v12.6H94.1V180.8z"/><path fill="#000000" d="M76.4,10c-27.8,0-50.6,22.8-50.6,50.6V246h153.7c27.8,0,50.6-22.8,50.6-50.6V10H76.4z M218.2,196c0,20.9-17.1,38-38,38H38.5V60.6c0-20.9,17.1-38,38-38h141.1V196L218.2,196L218.2,196z"/></g></g>
</svg>