
<svg version="1.1" xmlns="http://www.w3.org/2000/svg" xmlns:xlink="http://www.w3.org/1999/xlink" x="0px" y="0px" viewBox="0 0 256 256" enable-background="new 0 0 256 256" xml:space="preserve">

<g><g><path fill="#000000" d="M112,124.3C112,124.4,112,124.4,112,124.3c0.2,0.1,0.3,0.2,0.4,0.3C112.7,124.8,112.9,124.9,112,124.3z"/><path fill="#000000" d="M86.5,178.4C86.7,177.2,86.6,178,86.5,178.4L86.5,178.4z"/><path fill="#000000" d="M144,145.3c0.9,0.4,0.9,0.4,0.7,0.3C144.5,145.5,144.3,145.4,144,145.3C144,145.3,144,145.3,144,145.3z"/><path fill="#000000" d="M150.4,134.8c7.8-5.8,13.5-14.5,15-24.2c0.3-2.2,0.6-4.4,0.6-6.6c0-0.1,0-0.2,0-0.3c-0.1-7.6-2.4-15.3-6.8-21.5c-4.7-6.5-11-11.3-18.5-14.1c-14.5-5.4-32-0.6-41.8,11.3c-5.2,6.3-8.2,13.7-8.9,21.9c-0.6,7.7,1.3,15.7,5.3,22.3c2.6,4.3,6.1,8.1,10.2,11.1c-7.2,3.3-13.8,8.1-18.9,14.4c-8.1,9.8-12.6,22-12.7,34.8c0,3.2,2.8,6.3,6.1,6.1c3.3-0.1,6.1-2.7,6.1-6.1c0-1.2,0-2.4,0.1-3.6c0-0.6,0.1-1.2,0.2-1.8c0,0,0-0.1,0-0.1c0,0.1,0,0.2,0,0.4c0-0.3,0.1-0.7,0.2-1c0.4-2.4,1-4.7,1.7-7.1c0.3-1,0.7-2,1.1-3.1c0.1-0.2,0.2-0.4,0.2-0.6c0.3-0.6,0.6-1.2,0.9-1.8c1.1-2.1,2.3-4.1,3.7-6c0.3-0.5,0.7-0.9,1-1.3c-1.1,1.6,0,0,0.3-0.3c0.8-0.9,1.6-1.9,2.5-2.7c0.8-0.8,1.6-1.6,2.4-2.3c0.4-0.4,0.8-0.7,1.3-1.1c0.2-0.1,0.3-0.3,0.5-0.4c0,0,0.1-0.1,0.1-0.1c1.8-1.3,3.6-2.6,5.6-3.6c1-0.6,2-1.1,3-1.5c0.2-0.1,0.4-0.2,0.6-0.3c0.6-0.2,1.1-0.5,1.7-0.7c2.3-0.8,4.6-1.5,7-2c0.6-0.1,1.1-0.2,1.7-0.3c0.2,0,0.4,0,0.5-0.1c1.3-0.1,2.5-0.2,3.8-0.3c2.4-0.1,4.8,0,7.2,0.3c0.2,0,0.5,0,0.7,0.1c0.6,0.1,1.2,0.2,1.7,0.3c1.3,0.2,2.5,0.6,3.7,0.9c1.1,0.3,2.2,0.7,3.3,1.1c0.4,0.1,0.8,0.3,1.2,0.5c0,0-0.1,0-0.2-0.1c0.1,0,0.1,0.1,0.2,0.1c0.1,0,0.2,0.1,0.3,0.1c0.1,0,0.2,0.1,0.3,0.2c0.1,0,0.1,0.1,0.2,0.1c2.1,1,4.1,2.1,6,3.3c0.9,0.6,1.8,1.2,2.6,1.8c0.2,0.1,0.3,0.3,0.5,0.4c0.5,0.4,1,0.9,1.5,1.3c1.8,1.6,3.4,3.3,4.9,5.1c0.2,0.2,0.4,0.4,0.5,0.6c0,0,0,0,0,0.1c0.4,0.5,0.7,1,1.1,1.5c0.7,1.1,1.4,2.1,2.1,3.3c0.6,1.1,1.3,2.3,1.8,3.4c0.2,0.5,1,2.6,0.3,0.7c0.2,0.6,0.5,1.3,0.7,1.9c0.9,2.5,1.6,5,2.1,7.6c0.1,0.7,0.2,1.4,0.3,2.1c-0.4-2.1,0,0.3,0.1,0.8c0.1,1.4,0.2,2.9,0.2,4.3c0,3.2,2.8,6.3,6.1,6.1c3.3-0.1,6.1-2.7,6.1-6.1c0-11-3.4-22.1-9.8-31C166.6,145,159.1,138.8,150.4,134.8z M148.4,119.9c0,0.1-0.1,0.1-0.1,0.2c-0.5,0.7-1.1,1.3-1.7,1.9c-0.5,0.5-1,1-1.6,1.5c-0.3,0.3-0.6,0.5-0.9,0.8c0,0-0.2,0.1-0.3,0.3c-0.2,0.1-0.5,0.3-0.6,0.4c-0.3,0.2-0.6,0.4-0.8,0.6c-0.7,0.5-1.4,0.9-2.2,1.3c-0.7,0.4-1.3,0.7-1.9,1c0,0,0,0,0,0c-0.3,0.1-0.7,0.3-1,0.4c-1.5,0.6-3.1,1-4.6,1.3c-0.3,0.1-0.7,0.1-1,0.2c0,0-0.1,0-0.1,0c-0.8,0.1-1.5,0.1-2.3,0.2c-1.6,0.1-3.2,0-4.8-0.2c-0.4-0.1-0.7-0.1-1.1-0.2c-0.8-0.2-1.6-0.3-2.4-0.6c-0.8-0.2-1.5-0.5-2.3-0.7c-0.2-0.1-0.5-0.2-0.7-0.3c-0.1,0-0.3-0.1-0.4-0.1c-1.4-0.6-2.7-1.4-4-2.2c-0.4-0.3-0.8-0.6-1.3-0.9c-0.1-0.1-0.3-0.2-0.4-0.2c0,0-0.1-0.1-0.2-0.1c0,0,0.1,0,0.1,0.1c0,0,0,0,0,0c-0.3-0.3-0.7-0.6-1-0.9c-1.1-1-2.2-2.1-3.1-3.3c0,0-0.1-0.2-0.2-0.3c-0.1-0.2-0.4-0.5-0.4-0.6c-0.5-0.6-0.9-1.3-1.3-2c-0.4-0.6-0.7-1.3-1.1-1.9c-0.2-0.4-0.4-0.7-0.5-1.1c0-0.1,0-0.1-0.1-0.2c-0.5-1.4-1-2.8-1.4-4.3c-0.2-0.7-0.3-1.5-0.5-2.2c0,0,0-0.1,0-0.1c0-0.3-0.1-0.7-0.1-1c-0.1-1.7-0.1-3.3,0-5c0-0.3,0.1-0.7,0.1-1c0.1-0.8,0.3-1.6,0.5-2.4c0.4-1.5,0.9-2.9,1.4-4.3c0-0.1,0-0.1,0.1-0.2c0.1-0.3,0.3-0.6,0.4-0.9c0.4-0.7,0.7-1.4,1.1-2.1c0.4-0.7,0.8-1.3,1.3-2c0.2-0.2,0.4-0.4,0.5-0.7c0-0.1,0.1-0.1,0.2-0.2c1-1.2,2-2.2,3.1-3.3c0.3-0.3,0.6-0.5,0.9-0.8c0,0,0.2-0.2,0.3-0.3c0.1-0.1,0.3-0.2,0.4-0.3c0.4-0.3,0.7-0.5,1.1-0.7c1.3-0.8,2.6-1.6,4-2.2c0.1,0,0.3-0.1,0.4-0.2c0.2-0.1,0.4-0.2,0.6-0.2c0.7-0.3,1.5-0.5,2.3-0.7c0.7-0.2,1.4-0.4,2.2-0.5c0.4-0.1,0.8-0.2,1.2-0.2c0,0,0.1,0,0.2,0c1.6-0.1,3.2-0.2,4.7-0.2c0.7,0,1.5,0.1,2.2,0.2c0.4,0.1,0.8,0.1,1.2,0.2c1.6,0.3,3.1,0.7,4.6,1.3c0.2,0.1,0.5,0.2,0.7,0.3c0,0,0.1,0,0.1,0.1c0.8,0.4,1.5,0.7,2.3,1.1c0.6,0.4,1.3,0.7,1.9,1.1c0.3,0.2,0.6,0.4,0.8,0.6c0.1,0.1,0.5,0.4,0.7,0.5c0.1,0.1,0.2,0.2,0.3,0.2c0.3,0.2,0.5,0.4,0.7,0.6c0.6,0.5,1.2,1.1,1.7,1.6c0.6,0.6,1.1,1.1,1.6,1.7c0.1,0.2,0.3,0.4,0.4,0.6c0.1,0.1,0.1,0.2,0.2,0.3c0.9,1.3,1.7,2.6,2.4,4c0.1,0.3,0.3,0.6,0.4,0.9c0,0.1,0.1,0.2,0.1,0.3c0.2,0.6,0.5,1.2,0.7,1.8c0.5,1.5,0.9,3.1,1.1,4.6c0,0.3,0.1,0.7,0.1,1c0.1,0.8,0.1,1.7,0.1,2.5c0,0.8,0,1.5-0.1,2.3c0,0.4-0.1,0.8-0.1,1.2c0,0.1,0,0.2,0,0.2c-0.3,1.5-0.6,3-1.1,4.5c-0.2,0.7-0.5,1.3-0.7,2c0,0,0,0,0,0.1c-0.2,0.4-0.4,0.8-0.6,1.2c-0.7,1.3-1.5,2.6-2.3,3.9C148.7,119.4,148.5,119.7,148.4,119.9z"/><path fill="#000000" d="M142.4,23.2C142.4,23.2,142.4,23.2,142.4,23.2c-0.2,0-0.3,0-0.4-0.1C141.5,23.1,141,23.1,142.4,23.2z"/><path fill="#000000" d="M87.1,225.6C87.1,225.6,87.1,225.6,87.1,225.6C85.6,224.9,86.7,225.4,87.1,225.6z"/><path fill="#000000" d="M113.5,232.8C113.5,232.8,113.6,232.8,113.5,232.8c0.2,0,0.3,0,0.4,0.1C114.4,232.9,114.9,232.9,113.5,232.8z"/><path fill="#000000" d="M168.9,30.4C168.8,30.4,168.8,30.4,168.9,30.4C170.3,31.1,169.2,30.6,168.9,30.4z"/><path fill="#000000" d="M240.2,91.7c-3.7-11.2-9-22-15.8-31.6c-7.1-10-15.5-18.7-25.2-26.1c-9.4-7.2-19.9-12.9-31.1-17c-11.4-4.2-23.5-6.5-35.7-7c-12.3-0.5-24.8,1-36.7,4.4c-11.4,3.2-22.4,8.2-32.4,14.8c-9.8,6.4-18.6,14.3-26.1,23.3c-7.8,9.5-14.1,20-18.8,31.4c-4.6,11.3-7.3,23.2-8.2,35.4c-1,12.4,0.1,24.9,3.1,37c2.8,11.5,7.4,22.7,13.6,32.8c6.1,10,13.7,19.2,22.5,27c8.8,7.8,18.8,14.4,29.5,19.3c11.5,5.2,23.4,8.5,35.9,9.9c12.4,1.4,24.9,0.8,37.1-1.7c11.7-2.4,23.1-6.7,33.5-12.5c10.2-5.7,19.6-13,27.7-21.4c8.1-8.5,15.1-18.2,20.3-28.8c5.4-10.8,9.2-22.3,11-34.2c0.9-6.2,1.5-12.4,1.5-18.6C245.9,115.7,244,103.4,240.2,91.7z M192.6,44.3C193,44.6,193.4,45,192.6,44.3L192.6,44.3z M233.3,137c-0.1,1.4-0.2,2.8-0.4,4.2c0,0.3-0.1,0.7-0.1,1c-0.1,0.7-0.2,1.5-0.3,2.2c-0.9,5.6-2.2,11.1-4,16.5c-0.9,2.7-1.9,5.3-2.9,8c0,0,0-0.1,0.1-0.2c-0.1,0.3-0.3,0.6-0.4,0.9c-0.3,0.6-0.6,1.3-0.8,1.9c-0.6,1.3-1.3,2.6-1.9,4c-2.5,4.9-5.3,9.6-8.5,14.1c-0.7,1.1-1.5,2.1-2.3,3.1c-0.2,0.2-0.4,0.5-0.6,0.7c-0.5,0.6-1,1.2-1.5,1.8c-1.8,2.1-3.7,4.2-5.6,6.2c-2,2-4,3.9-6,5.8c-1,0.9-2,1.8-3.1,2.6c-0.4,0.4-0.9,0.7-1.3,1.1c-0.3,0.2-0.5,0.4-0.8,0.6c-0.1,0-0.1,0.1-0.2,0.1c-4.5,3.4-9.1,6.4-14,9.1c-2.5,1.3-5,2.6-7.6,3.8c-0.6,0.3-1.2,0.6-1.8,0.8c0,0,0.1,0,0.2-0.1c-0.3,0.1-0.6,0.3-0.9,0.4c-1.3,0.5-2.5,1-3.8,1.5c-5.4,2-10.9,3.5-16.6,4.6c-1.4,0.3-2.7,0.5-4.1,0.7c-0.6,0.1-1.3,0.2-1.9,0.3c-0.5,0-0.9,0.1-1.3,0.2c-2.8,0.3-5.7,0.5-8.5,0.6c-5.9,0.2-11.9,0-17.8-0.7c-0.2,0-0.3,0-0.5-0.1c-0.1,0-0.2,0-0.3,0h0c-0.1,0-0.1,0-0.2,0c0,0,0.1,0,0.1,0c-0.6-0.1-1.3-0.2-2-0.3c-1.5-0.2-3-0.5-4.5-0.8c-2.7-0.6-5.4-1.2-8.1-2c-2.7-0.8-5.5-1.7-8.1-2.6c-1.3-0.5-2.5-1-3.8-1.5c0,0,0.1,0,0.2,0.1c-0.3-0.1-0.6-0.3-0.9-0.4c-0.7-0.3-1.4-0.7-2.2-1c-5-2.3-9.8-5-14.4-8c-2.2-1.4-4.3-3-6.5-4.6c0.9,0.7-0.7-0.5-1-0.8c-0.5-0.4-1-0.8-1.6-1.3c-1.1-0.9-2.2-1.9-3.3-2.8c-4.1-3.7-7.8-7.6-11.3-11.8c-0.4-0.5-0.8-1-1.3-1.6c-0.2-0.2-0.4-0.5-0.6-0.7c-0.8-1.1-1.7-2.2-2.5-3.4c-1.6-2.3-3.2-4.6-4.6-7.1c-1.4-2.4-2.8-4.9-4-7.4c-0.6-1.1-1.1-2.2-1.6-3.4c-0.3-0.6-0.6-1.2-0.8-1.9c-0.1-0.3-0.3-0.6-0.4-0.9c0.1,0.2,0.2,0.4,0.2,0.6c-0.1-0.2-0.2-0.5-0.3-0.7c-2.2-5.3-3.9-10.8-5.2-16.3c-0.6-2.8-1.2-5.6-1.6-8.4c-0.1-0.6-0.2-1.2-0.3-1.7c0-0.3-0.1-0.7-0.1-1c-0.2-1.5-0.3-3.1-0.4-4.6c-0.5-5.9-0.4-11.9,0-17.9c0.1-1.4,0.3-2.8,0.4-4.2c0-0.2,0-0.3,0.1-0.5c0-0.1,0-0.2,0-0.3v0c0-0.1,0-0.1,0-0.2c0,0,0,0.1,0,0.1c0.1-0.6,0.2-1.3,0.3-2c0.5-2.9,1-5.7,1.7-8.5c1.3-5.5,3.2-10.9,5.3-16.2c0.1-0.3,0.2-0.5,0.3-0.8c0.3-0.6,0.6-1.2,0.8-1.9c0.6-1.2,1.2-2.5,1.8-3.7c1.3-2.5,2.6-5,4.1-7.4c1.4-2.4,3-4.7,4.6-7c0.8-1.1,1.6-2.1,2.4-3.2c-1.3,1.7,0.2-0.2,0.5-0.6c0.5-0.6,1-1.2,1.5-1.8c3.5-4.2,7.3-8.1,11.4-11.8c1-0.9,2-1.8,3.1-2.6c0.5-0.4,1-0.8,1.6-1.3c0.3-0.2,0.5-0.4,0.8-0.6l0,0c0,0,0,0,0.1-0.1c2.2-1.7,4.5-3.3,6.9-4.8c4.6-3,9.5-5.7,14.5-7.9c0.6-0.3,1.2-0.6,1.8-0.8c0,0-0.1,0-0.2,0.1c0.3-0.1,0.6-0.3,0.9-0.4c1.4-0.6,2.7-1.1,4.1-1.6c2.7-1,5.4-1.8,8.2-2.6c2.7-0.7,5.4-1.4,8.1-1.9c1.4-0.3,2.7-0.5,4.1-0.7c0.6-0.1,1.3-0.2,1.9-0.3c0.5,0,0.9-0.1,1.3-0.2c5.9-0.7,11.9-0.9,17.8-0.6c2.8,0.1,5.7,0.4,8.5,0.7c0.2,0,0.3,0,0.5,0.1c0.1,0,0.2,0,0.3,0h0c0.1,0,0.1,0,0.2,0c0,0-0.1,0-0.1,0c0.6,0.1,1.3,0.2,2,0.3c1.5,0.2,3,0.5,4.5,0.8c5.6,1.2,11.1,2.7,16.5,4.7c1.2,0.4,2.3,0.9,3.4,1.3c0,0-0.1,0-0.2-0.1c0.3,0.1,0.6,0.3,0.9,0.4c0.7,0.3,1.4,0.6,2.2,1c2.6,1.2,5.1,2.5,7.5,3.8c2.5,1.4,4.8,2.8,7.2,4.4c1.1,0.7,2.2,1.5,3.3,2.3c0.6,0.4,1.1,0.8,1.6,1.2c0.3,0.2,0.5,0.4,0.8,0.6c0.1,0,0.2,0.1,0.3,0.2c4.1,3.4,8.2,6.9,11.9,10.8c1.9,2,3.8,4.1,5.6,6.3c0.4,0.5,0.8,1,1.3,1.6c0.1,0.1,0.2,0.2,0.3,0.4c0.1,0.1,0.1,0.2,0.2,0.2c0,0,0,0,0,0c0,0,0.1,0.1,0.1,0.2c0,0,0-0.1-0.1-0.1c0.9,1.1,1.7,2.3,2.5,3.4c3.2,4.5,6,9.2,8.4,14.2c0.6,1.2,1.2,2.4,1.8,3.7c0.3,0.6,0.6,1.2,0.8,1.8c0,0,0-0.1-0.1-0.2c0,0.1,0.1,0.2,0.1,0.3c0,0,0,0,0,0.1c0.1,0.3,0.2,0.6,0.4,0.9c1,2.6,2,5.2,2.8,7.9c1.7,5.4,3.1,11,3.9,16.7c0.1,0.7,0.2,1.4,0.3,2.1c-0.3-2.2,0,0.3,0.1,0.8c0.2,1.4,0.3,2.8,0.4,4.2c0.2,2.9,0.3,5.7,0.3,8.6C233.7,131,233.6,134,233.3,137z"/><path fill="#000000" d="M169.3,225.4C169.3,225.4,169.3,225.4,169.3,225.4C167.8,226,168.9,225.6,169.3,225.4z"/><path fill="#000000" d="M225.4,86.9C225.4,86.9,225.4,86.9,225.4,86.9c0-0.1,0-0.1-0.1-0.2c0,0,0,0,0,0C225.8,88,225.6,87.3,225.4,86.9z"/><path fill="#000000" d="M211.8,63.6C211.8,63.5,211.8,63.5,211.8,63.6c-0.1-0.1-0.2-0.2-0.2-0.3C211.3,62.9,211,62.5,211.8,63.6z"/><path fill="#000000" d="M86.7,30.6C86.6,30.6,86.6,30.6,86.7,30.6C88.1,30.1,87,30.5,86.7,30.6z"/><path fill="#000000" d="M30.6,169.2C30.7,169.6,30.8,169.8,30.6,169.2L30.6,169.2z"/><path fill="#000000" d="M225.5,168.9C225.5,168.9,225.6,168.9,225.5,168.9C224.9,170.3,225.4,169.3,225.5,168.9z"/><path fill="#000000" d="M23.2,113.6C23.2,113.6,23.2,113.6,23.2,113.6c0,0.2,0,0.3-0.1,0.4C23.1,114.5,23.1,115,23.2,113.6z"/></g></g>
</svg>